<svg role="img" viewBox="0 0 323.1 72.401" xmlns="http://www.w3.org/2000/svg">
    <g id="svgGroup" stroke-linecap="round" fill-rule="evenodd" font-size="9pt" stroke-width="0.25mm">
        <path d="M 204.3 71.2 L 162.3 71.2 L 162.3 1.2 L 204.3 1.2 L 204.3 9.4 L 171.8 9.4 L 171.8 30.7 L 199.8 30.7 L 199.8 38.7 L 171.8 38.7 L 171.8 63 L 204.3 63 L 204.3 71.2 Z M 46 65.3 L 50.8 57.3 Q 54.4 60.3 58.9 62.2 A 23.348 23.348 0 0 0 64.27 63.71 A 32.118 32.118 0 0 0 69.4 64.1 A 27.981 27.981 0 0 0 73.947 63.754 Q 76.37 63.354 78.331 62.494 A 13.701 13.701 0 0 0 80.8 61.1 Q 84.848 58.209 84.995 53.366 A 12.116 12.116 0 0 0 85 53 A 11.94 11.94 0 0 0 84.663 50.107 A 9.816 9.816 0 0 0 83.8 47.85 A 8.097 8.097 0 0 0 82.6 46.194 Q 81.33 44.813 79.184 43.471 A 25.81 25.81 0 0 0 79.15 43.45 Q 76.034 41.508 70.265 39.28 A 118.584 118.584 0 0 0 69 38.8 Q 61.8 36 57.5 33.15 A 21.931 21.931 0 0 1 54.411 30.703 Q 52.694 29.053 51.638 27.188 A 13.303 13.303 0 0 1 51.35 26.65 Q 49.5 23 49.5 18 Q 49.5 13 52.25 8.95 Q 55 4.9 60.35 2.45 A 25.558 25.558 0 0 1 66.25 0.615 Q 69.493 0 73.3 0 Q 79.5 0 84.45 1.25 Q 89.4 2.5 94.1 4.8 L 90.6 12.9 A 31.496 31.496 0 0 0 86.474 10.881 A 41.686 41.686 0 0 0 82.65 9.55 Q 78.1 8.2 73.1 8.2 A 27.187 27.187 0 0 0 69.07 8.48 Q 66.938 8.8 65.2 9.487 A 12.616 12.616 0 0 0 62.7 10.8 A 9.902 9.902 0 0 0 60.537 12.765 A 7.359 7.359 0 0 0 58.9 17.5 A 10.464 10.464 0 0 0 59.192 20.022 A 8.562 8.562 0 0 0 60 22.1 Q 61.056 24.019 64.091 25.847 A 23.503 23.503 0 0 0 64.35 26 A 33.003 33.003 0 0 0 66.566 27.172 Q 68.835 28.275 72.046 29.523 A 130.016 130.016 0 0 0 74.1 30.3 A 81.228 81.228 0 0 1 79.078 32.329 Q 83.464 34.3 86.45 36.4 A 26.044 26.044 0 0 1 89.49 38.878 Q 91.713 41.006 92.9 43.35 A 17.579 17.579 0 0 1 94.641 49.213 A 22.155 22.155 0 0 1 94.8 51.9 A 21.71 21.71 0 0 1 94.133 57.401 A 17.105 17.105 0 0 1 91.55 63 Q 88.3 67.6 82.55 70 A 30.521 30.521 0 0 1 75.14 72.004 A 40.027 40.027 0 0 1 69.4 72.4 Q 62.1 72.4 56.1 70.45 A 38.206 38.206 0 0 1 50.733 68.268 A 28.433 28.433 0 0 1 46 65.3 Z M 118.3 71.2 L 108.8 71.2 L 108.8 1.2 L 150.3 1.2 L 150.3 9.4 L 118.3 9.4 L 118.3 30.8 L 145 30.8 L 145 38.6 L 118.3 38.6 L 118.3 71.2 Z M 274.6 68.7 L 265.9 72.2 L 258.1 52.2 L 225.7 52.2 L 217.9 72 L 209.8 68.7 L 237.2 1.2 L 247.6 1.2 L 274.6 68.7 Z M 301.6 71.2 L 292.1 71.2 L 292.1 9.6 L 270.6 9.6 L 270.6 1.2 L 323.1 1.2 L 323.1 9.6 L 301.6 9.6 L 301.6 71.2 Z M 0 66.6 L 4.6 59.3 A 16.858 16.858 0 0 0 8.67 62.416 A 19.43 19.43 0 0 0 9.4 62.8 A 13.114 13.114 0 0 0 13.275 64.06 A 11.941 11.941 0 0 0 15.1 64.2 A 10.741 10.741 0 0 0 18.607 63.653 A 8.936 8.936 0 0 0 22.7 60.75 Q 25.5 57.3 25.5 49.1 L 25.5 1.2 L 35 1.2 L 35 48.1 A 47.346 47.346 0 0 1 34.573 54.698 Q 33.481 62.431 29.6 66.6 A 17.93 17.93 0 0 1 17.808 72.286 A 24.68 24.68 0 0 1 15.4 72.4 A 23.443 23.443 0 0 1 7.322 71.017 A 22.405 22.405 0 0 1 6.75 70.8 A 22.827 22.827 0 0 1 2.828 68.818 A 18.183 18.183 0 0 1 0 66.6 Z M 241.9 10.6 L 228.7 44.2 L 255 44.2 L 241.9 10.6 Z" vector-effect="non-scaling-stroke"/>
    </g>
</svg>
